<?xml version="1.0" encoding="utf-8"?>
<!-- Generator: Adobe Illustrator 26.5.0, SVG Export Plug-In . SVG Version: 6.00 Build 0)  -->
<svg version="1.1" id="Layer_2_00000134970505964145626700000000720861919360887977_"
	 xmlns="http://www.w3.org/2000/svg" xmlns:xlink="http://www.w3.org/1999/xlink" x="0px" y="0px" viewBox="0 0 442.9 459"
	 style="enable-background:new 0 0 442.9 459;" xml:space="preserve">
<style type="text/css">
	.st0{fill:#FFFFFF;}
</style>
<g>
	<path class="st0" d="M181.3,357.8c-6.1,9.3-14.6,16-25.3,19.9c-10.8,4-21.5,6-32.1,6c-5.3,0-11-0.2-17-0.6
		c-6-0.4-10.7-1.1-14.2-2.2c-2.7-0.8-4.4-1.8-5.2-3c-0.8-1.2-1.2-3.3-1.2-6.2v-36.7c0-3.7,0.4-6,1.2-6.8c0.8-0.8,3.5-0.5,8,0.8
		c6.6,1.6,15.2,2.4,25.5,2.4c6.1,0,10.8-2.7,14.2-8c3.3-5.3,5-15.2,5-29.5V81c0-5.3,2.4-8,7.2-8h38.7c5.6,0,8.4,2.7,8.4,8v211
		c0,12.5-0.9,24.6-2.6,36.3C190.1,340,186.6,349.9,181.3,357.8z"/>
	<path class="st0" d="M351.2,378.6c-2.9,1.3-6.6,2.5-11,3.6c-4.4,1.1-9.2,1.9-14.4,2.6c-5.2,0.7-10.6,1.1-16.2,1.2
		c-5.6,0.1-10.9-0.1-16-0.6c-16.8-1.3-31.6-5.2-44.5-11.6c-12.9-6.4-23.7-14.7-32.5-24.9c-8.8-10.2-15.4-22.3-19.9-36.1
		c-4.5-13.8-6.8-28.9-6.8-45.1c0-17,2.7-32.7,8-47.1c5.3-14.4,12.8-26.7,22.5-37.1c9.7-10.4,21.4-18.4,35.1-24.1
		c13.7-5.7,28.9-8.6,45.7-8.6c7.7,0,16.2,0.5,25.3,1.6c9.2,1.1,17.6,2.9,25.3,5.6c2.4,0.8,3.8,1.7,4.2,2.8c0.4,1.1,0.5,3.1,0.2,6
		l-4,30.7c-0.5,3.2-1.4,5.3-2.6,6.4c-1.2,1.1-3.8,0.9-7.8-0.4c-5.6-2.1-12.4-3.7-20.3-4.6c-8-0.9-15-1.3-21.1-1
		c-18.4,0.5-32.5,7.1-42.5,19.7c-10,12.6-15,29.3-15,50.1c0,19.9,4.7,36,14.2,48.3c9.4,12.2,22.7,19.3,39.7,21.1
		c8.5,1.3,17,1.5,25.3,0.6c8.4-0.9,15.8-2.5,22.1-4.6c4.3-1.3,6.8-1.7,7.8-1c0.9,0.7,1.5,2.5,1.8,5.4l2.4,30.7
		c0.3,3.2,0.1,5.4-0.6,6.6C355.1,376,353.6,377.2,351.2,378.6z"/>
</g>
<rect x="-376" y="294" style="fill:none;" width="12" height="2"/>
<text transform="matrix(1 0 0 1 -143 -83)" style="font-family:'NanumGothicExtraBold'; font-size:130px; letter-spacing:-16;">Lorem ipsum</text>
</svg>
