<?xml version="1.0" encoding="UTF-8"?>
<svg id="Layer_2" data-name="Layer 2" xmlns="http://www.w3.org/2000/svg" xmlns:xlink="http://www.w3.org/1999/xlink" viewBox="0 0 492 476">
  <defs>
    <style>
      .cls-1 {
        fill: #0b2545;
        filter: url(#drop-shadow-1);
      }

      .cls-2 {
        fill: #8da9c4;
        filter: url(#drop-shadow-3);
      }

      .cls-3 {
        fill: #134074;
        filter: url(#drop-shadow-2);
      }
    </style>
    <filter id="drop-shadow-1" filterUnits="userSpaceOnUse">
      <feOffset dx="14" dy="14"/>
      <feGaussianBlur result="blur" stdDeviation="7"/>
      <feFlood flood-color="#000" flood-opacity=".6"/>
      <feComposite in2="blur" operator="in"/>
      <feComposite in="SourceGraphic"/>
    </filter>
    <filter id="drop-shadow-2" filterUnits="userSpaceOnUse">
      <feOffset dx="14" dy="14"/>
      <feGaussianBlur result="blur-2" stdDeviation="7"/>
      <feFlood flood-color="#000" flood-opacity=".6"/>
      <feComposite in2="blur-2" operator="in"/>
      <feComposite in="SourceGraphic"/>
    </filter>
    <filter id="drop-shadow-3" filterUnits="userSpaceOnUse">
      <feOffset dx="14" dy="14"/>
      <feGaussianBlur result="blur-3" stdDeviation="7"/>
      <feFlood flood-color="#000" flood-opacity=".6"/>
      <feComposite in2="blur-3" operator="in"/>
      <feComposite in="SourceGraphic"/>
    </filter>
  </defs>
  <g id="Layer_1-2" data-name="Layer 1">
    <g>
      <path class="cls-1" d="M371.85,204.14c-6.85-10.15-21.03-13.08-28.37-22.88-4.05-5.4-5.51-12.24-7.64-18.65-4.36-13.13-11.94-25.17-21.88-34.79-5.53-5.35-12.18-10.12-19.83-10.95-5.23-.56-10.52,.77-15.77,.38-6.99-.52-13.48-3.56-20.5-4.1-6.64-.51-13.34,.51-19.96,.86-9.83,.53-18.5-1.02-28.12-2.32-20.08-2.73-43.08,6.76-52.69,25.28-3,5.63-4.87,12.37-2.79,18.4,1.61,4.66,5.34,8.29,7.43,12.75,5.48,11.66-1.23,25.01-6.15,36.92-4.03,9.75-6.94,20.28-5.77,30.76,1.17,10.48,7.08,20.89,16.72,25.18,10.94,4.86,25.5,1.77,33.76,10.44,5.45,5.73,6.01,14.75,11.08,20.82,5.13,6.14,13.75,7.98,21.73,8.57,18.99,1.41,38.41-2,56.93,2.38,10.4,2.46,20.69,7.36,31.26,5.83,10.52-1.52,19-9.1,26.78-16.33,12.33-11.45,25.27-23.91,29.07-40.3,2.1-9.06,1.18-18.51,.25-27.76-.72-7.11-1.55-14.56-5.55-20.48Z"/>
      <path class="cls-3" d="M420.43,188.58c-2.49-24.82-21.17-47.23-45.13-54.15-7.91-2.28-16.33-3.03-23.74-6.62-13.48-6.52-20.93-20.86-30.31-32.53-6.29-7.82-13.69-14.66-21.07-21.47-2.29-2.11-4.66-4.27-7.56-5.39-6.18-2.37-12.75,.47-18.57,4.08,3.15-1.75,6.64-2.91,10.23-3.32-3.59,.41-7.07,1.57-10.23,3.32-1.17,.72-2.3,1.48-3.4,2.22-1.93,1.47-3.67,3.19-5.14,5.12-3.71,4.86-6.21,11.31-11.88,13.58-2.59,1.04-5.47,1.01-8.27,.96-5.72-.09-11.56-.21-16.94-2.15-7.17-2.59-12.8-8.14-19.24-12.21-21.92-13.84-52.56-8.48-71.95,8.72-19.39,17.2-28.43,43.9-28.83,69.82-.06,3.59,.11,7.41,2.1,10.4,4.7,7.07,17.88,7.38,18.75,15.82,.24,2.34-.7,4.63-1.65,6.78-10.78,24.21-26.62,45.81-38.55,69.47-11.93,23.66-19.94,50.92-13.43,76.61,1.81,7.16,4.9,14.28,10.46,19.14,12.92,11.3,33.42,6.15,47.72-3.35,14.3-9.5,26.54-22.85,42.91-28,2.72-.85,5.61-1.47,8.4-.91,5.61,1.12,9.18,6.42,13.11,10.58,9.13,9.67,22.5,14.3,35.69,16.01s26.56,.84,39.85,1.29c19.76,.67,39.36,4.28,59.13,4.49,19.77,.21,40.45-3.37,56.14-15.4,10.85-8.31,18.51-19.99,26.93-30.76,6.17-7.9,13-15.68,16.01-25.24,6.94-22.08-8.38-44.63-10.82-67.65-1.03-9.71,.27-19.56-.71-29.28Zm-43.29,63.81c-3.81,16.39-16.74,28.85-29.07,40.3-7.79,7.23-16.27,14.81-26.78,16.33-10.57,1.53-20.87-3.37-31.26-5.83-18.53-4.38-37.95-.98-56.93-2.38-7.98-.59-16.6-2.42-21.73-8.57-5.07-6.07-5.63-15.09-11.08-20.82-8.25-8.67-22.82-5.58-33.76-10.44-9.64-4.28-15.55-14.7-16.72-25.18-1.17-10.48,1.74-21.02,5.77-30.76,4.93-11.91,11.63-25.25,6.15-36.92-2.1-4.46-5.83-8.09-7.43-12.75-2.08-6.04-.22-12.77,2.79-18.4,9.6-18.52,32.61-28.01,52.69-25.28,9.62,1.31,18.29,2.85,28.12,2.32,6.63-.36,13.32-1.38,19.96-.86,7.02,.54,13.52,3.58,20.5,4.1,5.25,.39,10.53-.94,15.77-.38,7.65,.83,14.3,5.6,19.83,10.95,9.94,9.62,17.51,21.67,21.88,34.79,2.13,6.41,3.6,13.24,7.64,18.65,7.34,9.8,21.52,12.73,28.37,22.88,4,5.93,4.83,13.37,5.55,20.48,.93,9.25,1.85,18.7-.25,27.76Z"/>
      <path class="cls-2" d="M445.91,210.24c-6.87-16.3-16.77-31.2-23.49-47.56-5.32-12.95-8.68-27.53-6.21-41.53,1.04-5.89,6.41-12.34,.95-14.77-2.52-1.12-5.85,2.16-9.21,.06-2.5-1.56-3.88-4.91-3.98-7.75-.14-4.38,1.81-8.51,3.27-12.63,7.17-20.22,2.17-44.24-12.47-59.92-14.64-15.68-38.27-22.31-58.93-16.54-13.41,3.74-24.99,12.05-37.43,18.29-12.44,6.24-27.21,10.42-40.16,5.31-5.96-2.35-11.09-6.52-17.12-8.71-11.28-4.1-23.91-.66-34.77,4.45-10.86,5.11-21.05,11.91-32.65,14.99-24.42,6.49-50.11-4.53-75.32-2.83-19.4,1.31-38.57,10.94-49.37,27.11-12.94,19.39-12.47,44.82-7.62,67.61,4.85,22.8,13.59,44.84,15.7,68.05,.94,10.36,.44,21.24-4.35,30.47-4.29,8.27-11.61,14.47-17.9,21.35-20.1,21.99-30.17,52.82-26.93,82.44,1.83,16.75,8.2,33.68,20.92,44.74,26.03,22.64,66.98,13.34,98.48,27.42,19.01,8.5,34.22,25.42,54.6,29.66,14.76,3.08,30.09-1.06,44.04-6.79,17.16-7.05,33.3-16.57,47.77-28.18,10.35-8.3,20.46-17.98,33.39-20.92,13.38-3.04,27.13,1.73,40.75,3.41,16.44,2.03,33.07-.49,49.44-3,5.79-.89,11.81-1.86,16.65-5.16,3.37-2.29,5.93-5.55,8.34-8.83,33.41-45.53,45.53-108.22,23.59-160.25Zm-13.95,75.27c-3,9.56-9.84,17.34-16.01,25.24-8.42,10.77-16.07,22.45-26.93,30.76-15.7,12.02-36.37,15.61-56.14,15.4-19.77-.21-39.37-3.82-59.13-4.49-13.29-.45-26.66,.42-39.85-1.29s-26.55-6.35-35.69-16.01c-3.93-4.16-7.49-9.47-13.11-10.58-2.79-.56-5.69,.06-8.4,.91-16.37,5.15-28.61,18.5-42.91,28-14.3,9.5-34.8,14.65-47.72,3.35-5.56-4.86-8.64-11.98-10.46-19.14-6.51-25.69,1.5-52.95,13.43-76.61,11.93-23.66,27.77-45.27,38.55-69.47,.96-2.15,1.89-4.43,1.65-6.78-.86-8.44-14.05-8.76-18.75-15.82-1.99-2.99-2.15-6.81-2.1-10.4,.4-25.92,9.44-52.62,28.83-69.82,19.39-17.2,50.03-22.56,71.95-8.72,6.44,4.07,12.07,9.62,19.24,12.21,5.38,1.94,11.22,2.06,16.94,2.15,2.79,.05,5.67,.08,8.27-.96,5.67-2.28,8.18-8.72,11.88-13.58,1.47-1.93,3.21-3.64,5.14-5.12-.02,.01-.04,.03-.06,.04,.02-.01,.04-.03,.06-.04,1.08-.82,2.21-1.57,3.4-2.22,5.82-3.61,12.39-6.45,18.57-4.08,2.91,1.12,5.27,3.28,7.56,5.39,7.38,6.8,14.79,13.64,21.07,21.47,9.38,11.67,16.83,26.01,30.31,32.53,7.41,3.58,15.83,4.34,23.74,6.62,23.97,6.92,42.65,29.33,45.13,54.15,.97,9.72-.32,19.57,.71,29.28,2.44,23.02,17.76,45.56,10.82,67.65Z"/>
    </g>
  </g>
</svg>