<?xml version="1.0" encoding="utf-8"?>
<!-- Generator: Adobe Illustrator 26.5.0, SVG Export Plug-In . SVG Version: 6.00 Build 0)  -->
<svg version="1.1" id="visual" xmlns="http://www.w3.org/2000/svg" xmlns:xlink="http://www.w3.org/1999/xlink" x="0px" y="0px"
	 viewBox="0 0 11500 600" style="enable-background:new 0 0 11500 600;" xml:space="preserve">
<style type="text/css">
	.st0{fill:#0066FF;}
</style>
<path id="wave" class="st0" d="M6900,600V362.2c-214.7,122.4-580.4,159.1-803.6,90.4c-258.5-79.6-528-313.4-816-313.4
	c-290.9-0.1-457.3,144.2-680.4,223V600"/>
<path class="st0" d="M4600,601V363.2c-214.7,122.4-580.4,159.1-803.6,90.4c-258.5-79.6-528-313.4-816-313.4
	c-290.8,0-457.3,144.2-680.4,223.1V601"/>
<path class="st0" d="M2300,601V363.2c-214.7,122.4-580.4,159.1-803.6,90.4c-258.5-79.6-528-313.4-816-313.4
	C389.6,140.2,223.1,284.4,0,363.3V601"/>
<path class="st0" d="M9200,600V362.2c-214.7,122.4-580.4,159.1-803.6,90.4c-258.5-79.6-528-313.4-816-313.4
	c-290.8,0-457.3,144.2-681.4,223.1V600"/>
<path class="st0" d="M11500,600V362.2c-214.7,122.4-580.4,159.1-803.6,90.4c-258.5-79.6-528-313.4-816-313.4
	c-290.8,0-457.3,144.2-681.4,223.1V600"/>
</svg>
